<mxfile host="Electron" agent="Mozilla/5.0 (Macintosh; Intel Mac OS X 10_15_7) AppleWebKit/537.36 (KHTML, like Gecko) draw.io/26.0.9 Chrome/128.0.6613.186 Electron/32.2.5 Safari/537.36" version="26.0.9">
  <diagram name="Page-1" id="AXTLkXJYsEiklRZMptgq">
    <mxGraphModel dx="1434" dy="907" grid="1" gridSize="10" guides="1" tooltips="1" connect="1" arrows="1" fold="1" page="1" pageScale="1" pageWidth="840" pageHeight="550" math="0" shadow="0" adaptiveColors="none">
      <root>
        <mxCell id="0" />
        <mxCell id="1" parent="0" />
        <mxCell id="i6K-x-Owd5n2TkntVumx-1" value="&lt;h2 style=&quot;padding-bottom: 210px;&quot;&gt;NotificationService&lt;/h2&gt;" style="rounded=1;whiteSpace=wrap;html=1;shadow=1;glass=0;labelPosition=center;verticalLabelPosition=middle;align=center;verticalAlign=middle;arcSize=5;fillColor=#f5f5f5;fontColor=#333333;strokeColor=#666666;gradientColor=#FFFFFF;gradientDirection=east;textShadow=0;labelBorderColor=none;" vertex="1" parent="1">
          <mxGeometry x="40" y="30" width="760" height="250" as="geometry" />
        </mxCell>
        <mxCell id="i6K-x-Owd5n2TkntVumx-2" value="" style="endArrow=none;html=1;rounded=0;" edge="1" parent="1">
          <mxGeometry width="50" height="50" relative="1" as="geometry">
            <mxPoint x="800" y="72" as="sourcePoint" />
            <mxPoint x="40" y="69.18367346938777" as="targetPoint" />
          </mxGeometry>
        </mxCell>
        <mxCell id="i6K-x-Owd5n2TkntVumx-3" value="&lt;b&gt;Notification&lt;/b&gt;" style="swimlane;fontStyle=0;childLayout=stackLayout;horizontal=1;startSize=26;fillColor=none;horizontalStack=0;resizeParent=1;resizeParentMax=0;resizeLast=0;collapsible=1;marginBottom=0;whiteSpace=wrap;html=1;" vertex="1" parent="1">
          <mxGeometry x="300" y="90" width="240" height="156" as="geometry">
            <mxRectangle x="540" y="370" width="70" height="30" as="alternateBounds" />
          </mxGeometry>
        </mxCell>
        <mxCell id="i6K-x-Owd5n2TkntVumx-4" value="- id: Long" style="text;strokeColor=none;fillColor=none;align=left;verticalAlign=top;spacingLeft=4;spacingRight=4;overflow=hidden;rotatable=0;points=[[0,0.5],[1,0.5]];portConstraint=eastwest;whiteSpace=wrap;html=1;" vertex="1" parent="i6K-x-Owd5n2TkntVumx-3">
          <mxGeometry y="26" width="240" height="26" as="geometry" />
        </mxCell>
        <mxCell id="i6K-x-Owd5n2TkntVumx-5" value="- userId: Long" style="text;strokeColor=none;fillColor=none;align=left;verticalAlign=top;spacingLeft=4;spacingRight=4;overflow=hidden;rotatable=0;points=[[0,0.5],[1,0.5]];portConstraint=eastwest;whiteSpace=wrap;html=1;" vertex="1" parent="i6K-x-Owd5n2TkntVumx-3">
          <mxGeometry y="52" width="240" height="26" as="geometry" />
        </mxCell>
        <mxCell id="i6K-x-Owd5n2TkntVumx-6" value="- eventType: &lt;b&gt;EventType&lt;/b&gt;" style="text;strokeColor=none;fillColor=none;align=left;verticalAlign=top;spacingLeft=4;spacingRight=4;overflow=hidden;rotatable=0;points=[[0,0.5],[1,0.5]];portConstraint=eastwest;whiteSpace=wrap;html=1;" vertex="1" parent="i6K-x-Owd5n2TkntVumx-3">
          <mxGeometry y="78" width="240" height="26" as="geometry" />
        </mxCell>
        <mxCell id="i6K-x-Owd5n2TkntVumx-31" value="- sentAt: DateTime" style="text;strokeColor=none;fillColor=none;align=left;verticalAlign=top;spacingLeft=4;spacingRight=4;overflow=hidden;rotatable=0;points=[[0,0.5],[1,0.5]];portConstraint=eastwest;whiteSpace=wrap;html=1;" vertex="1" parent="i6K-x-Owd5n2TkntVumx-3">
          <mxGeometry y="104" width="240" height="26" as="geometry" />
        </mxCell>
        <mxCell id="i6K-x-Owd5n2TkntVumx-37" value="- notificationStatus:&amp;nbsp;&lt;b&gt;NotificationStatus&lt;/b&gt;" style="text;strokeColor=none;fillColor=none;align=left;verticalAlign=top;spacingLeft=4;spacingRight=4;overflow=hidden;rotatable=0;points=[[0,0.5],[1,0.5]];portConstraint=eastwest;whiteSpace=wrap;html=1;" vertex="1" parent="i6K-x-Owd5n2TkntVumx-3">
          <mxGeometry y="130" width="240" height="26" as="geometry" />
        </mxCell>
        <mxCell id="i6K-x-Owd5n2TkntVumx-18" value="&lt;div&gt;&lt;i&gt;&lt;font style=&quot;font-size: 8px;&quot;&gt;&amp;lt;&amp;lt;enumeration&amp;gt;&amp;gt;&lt;/font&gt;&lt;/i&gt;&lt;/div&gt;&lt;b&gt;NotificationStatus&lt;/b&gt;" style="swimlane;fontStyle=0;childLayout=stackLayout;horizontal=1;startSize=30;fillColor=none;horizontalStack=0;resizeParent=1;resizeParentMax=0;resizeLast=0;collapsible=1;marginBottom=0;whiteSpace=wrap;html=1;" vertex="1" parent="1">
          <mxGeometry x="600" y="90" width="160" height="108" as="geometry">
            <mxRectangle x="570" y="130" width="70" height="30" as="alternateBounds" />
          </mxGeometry>
        </mxCell>
        <mxCell id="i6K-x-Owd5n2TkntVumx-22" value="CREATED" style="text;strokeColor=none;fillColor=none;align=left;verticalAlign=top;spacingLeft=4;spacingRight=4;overflow=hidden;rotatable=0;points=[[0,0.5],[1,0.5]];portConstraint=eastwest;whiteSpace=wrap;html=1;" vertex="1" parent="i6K-x-Owd5n2TkntVumx-18">
          <mxGeometry y="30" width="160" height="26" as="geometry" />
        </mxCell>
        <mxCell id="i6K-x-Owd5n2TkntVumx-23" value="SENT" style="text;strokeColor=none;fillColor=none;align=left;verticalAlign=top;spacingLeft=4;spacingRight=4;overflow=hidden;rotatable=0;points=[[0,0.5],[1,0.5]];portConstraint=eastwest;whiteSpace=wrap;html=1;" vertex="1" parent="i6K-x-Owd5n2TkntVumx-18">
          <mxGeometry y="56" width="160" height="26" as="geometry" />
        </mxCell>
        <mxCell id="i6K-x-Owd5n2TkntVumx-24" value="FAILED" style="text;strokeColor=none;fillColor=none;align=left;verticalAlign=top;spacingLeft=4;spacingRight=4;overflow=hidden;rotatable=0;points=[[0,0.5],[1,0.5]];portConstraint=eastwest;whiteSpace=wrap;html=1;" vertex="1" parent="i6K-x-Owd5n2TkntVumx-18">
          <mxGeometry y="82" width="160" height="26" as="geometry" />
        </mxCell>
        <mxCell id="i6K-x-Owd5n2TkntVumx-27" value="&lt;div&gt;&lt;i&gt;&lt;font style=&quot;font-size: 8px;&quot;&gt;&amp;lt;&amp;lt;enumeration&amp;gt;&amp;gt;&lt;/font&gt;&lt;/i&gt;&lt;/div&gt;&lt;b&gt;EventType&lt;/b&gt;" style="swimlane;fontStyle=0;childLayout=stackLayout;horizontal=1;startSize=30;fillColor=none;horizontalStack=0;resizeParent=1;resizeParentMax=0;resizeLast=0;collapsible=1;marginBottom=0;whiteSpace=wrap;html=1;" vertex="1" parent="1">
          <mxGeometry x="80" y="90" width="160" height="160" as="geometry">
            <mxRectangle x="570" y="130" width="70" height="30" as="alternateBounds" />
          </mxGeometry>
        </mxCell>
        <mxCell id="i6K-x-Owd5n2TkntVumx-28" value="USER_CREATED" style="text;strokeColor=none;fillColor=none;align=left;verticalAlign=top;spacingLeft=4;spacingRight=4;overflow=hidden;rotatable=0;points=[[0,0.5],[1,0.5]];portConstraint=eastwest;whiteSpace=wrap;html=1;" vertex="1" parent="i6K-x-Owd5n2TkntVumx-27">
          <mxGeometry y="30" width="160" height="26" as="geometry" />
        </mxCell>
        <mxCell id="i6K-x-Owd5n2TkntVumx-29" value="USER_UPDATED" style="text;strokeColor=none;fillColor=none;align=left;verticalAlign=top;spacingLeft=4;spacingRight=4;overflow=hidden;rotatable=0;points=[[0,0.5],[1,0.5]];portConstraint=eastwest;whiteSpace=wrap;html=1;" vertex="1" parent="i6K-x-Owd5n2TkntVumx-27">
          <mxGeometry y="56" width="160" height="26" as="geometry" />
        </mxCell>
        <mxCell id="i6K-x-Owd5n2TkntVumx-30" value="USER_DELETED" style="text;strokeColor=none;fillColor=none;align=left;verticalAlign=top;spacingLeft=4;spacingRight=4;overflow=hidden;rotatable=0;points=[[0,0.5],[1,0.5]];portConstraint=eastwest;whiteSpace=wrap;html=1;" vertex="1" parent="i6K-x-Owd5n2TkntVumx-27">
          <mxGeometry y="82" width="160" height="26" as="geometry" />
        </mxCell>
        <mxCell id="i6K-x-Owd5n2TkntVumx-38" value="ORDER_CONFIRMED" style="text;strokeColor=none;fillColor=none;align=left;verticalAlign=top;spacingLeft=4;spacingRight=4;overflow=hidden;rotatable=0;points=[[0,0.5],[1,0.5]];portConstraint=eastwest;whiteSpace=wrap;html=1;" vertex="1" parent="i6K-x-Owd5n2TkntVumx-27">
          <mxGeometry y="108" width="160" height="26" as="geometry" />
        </mxCell>
        <mxCell id="i6K-x-Owd5n2TkntVumx-39" value="ORDER_CANCELLED" style="text;strokeColor=none;fillColor=none;align=left;verticalAlign=top;spacingLeft=4;spacingRight=4;overflow=hidden;rotatable=0;points=[[0,0.5],[1,0.5]];portConstraint=eastwest;whiteSpace=wrap;html=1;" vertex="1" parent="i6K-x-Owd5n2TkntVumx-27">
          <mxGeometry y="134" width="160" height="26" as="geometry" />
        </mxCell>
        <mxCell id="i6K-x-Owd5n2TkntVumx-43" style="edgeStyle=orthogonalEdgeStyle;rounded=0;orthogonalLoop=1;jettySize=auto;html=1;exitX=1;exitY=0.5;exitDx=0;exitDy=0;entryX=-0.006;entryY=0.157;entryDx=0;entryDy=0;entryPerimeter=0;" edge="1" parent="1" source="i6K-x-Owd5n2TkntVumx-37" target="i6K-x-Owd5n2TkntVumx-18">
          <mxGeometry relative="1" as="geometry">
            <Array as="points">
              <mxPoint x="570" y="233" />
              <mxPoint x="570" y="107" />
            </Array>
          </mxGeometry>
        </mxCell>
        <mxCell id="i6K-x-Owd5n2TkntVumx-44" style="edgeStyle=orthogonalEdgeStyle;rounded=0;orthogonalLoop=1;jettySize=auto;html=1;exitX=0;exitY=0.5;exitDx=0;exitDy=0;entryX=1.013;entryY=0.094;entryDx=0;entryDy=0;entryPerimeter=0;" edge="1" parent="1" source="i6K-x-Owd5n2TkntVumx-6" target="i6K-x-Owd5n2TkntVumx-27">
          <mxGeometry relative="1" as="geometry" />
        </mxCell>
      </root>
    </mxGraphModel>
  </diagram>
</mxfile>
